REM DIRINDEX 1\6,1\2\7,1\2\8,1\2\9,1\3\10,1\3\11,1\4\12,1\4\13,1\4\14,1\5\15,1\5\16,1\5\17
REM DIRNAME cjc040,folder01,folder02,folder03,folder04,folder05,folder06,folder07,folder08,folder09,folder10,folder11,folder12,folder13,folder14,folder15,folder16
TITLE ""
FILE "P2Q_t_0911-0928.mp3" MP3
  TRACK 01 AUDIO
    TITLE "10:cjc040_3477"
    INDEX 01 00:00:00
  TRACK 02 AUDIO
    TITLE "0:"
    INDEX 01 00:01:05
  TRACK 03 AUDIO
    TITLE "11:cjc040_3478"
    INDEX 01 00:01:58
  TRACK 04 AUDIO
    TITLE "0:"
    INDEX 01 00:02:49
  TRACK 05 AUDIO
    TITLE "10:cjc040_3479"
    INDEX 01 00:03:33
  TRACK 06 AUDIO
    TITLE "0:"
    INDEX 01 00:04:58
  TRACK 07 AUDIO
    TITLE "11:cjc040_3480"
    INDEX 01 00:05:32
  TRACK 08 AUDIO
    TITLE "0:"
    INDEX 01 00:07:37
  TRACK 09 AUDIO
    TITLE "10:cjc040_3481"
    INDEX 01 00:08:17
  TRACK 10 AUDIO
    TITLE "0:"
    INDEX 01 00:09:40
  TRACK 11 AUDIO
    TITLE "11:cjc040_3482"
    INDEX 01 00:10:16
  TRACK 12 AUDIO
    TITLE "0:"
    INDEX 01 00:11:31
  TRACK 13 AUDIO
    TITLE "10:cjc040_3483"
    INDEX 01 00:12:05
  TRACK 14 AUDIO
    TITLE "0:"
    INDEX 01 00:13:10
  TRACK 15 AUDIO
    TITLE "11:cjc040_3484"
    INDEX 01 00:13:71
  TRACK 16 AUDIO
    TITLE "0:"
    INDEX 01 00:15:40
  TRACK 17 AUDIO
    TITLE "10:cjc040_3485"
    INDEX 01 00:16:20
  TRACK 18 AUDIO
    TITLE "0:"
    INDEX 01 00:17:31
  TRACK 19 AUDIO
    TITLE "11:cjc040_3486"
    INDEX 01 00:18:13
  TRACK 20 AUDIO
    TITLE "0:"
    INDEX 01 00:21:25
  TRACK 21 AUDIO
    TITLE "10:cjc040_3487"
    INDEX 01 00:22:01
  TRACK 22 AUDIO
    TITLE "0:"
    INDEX 01 00:23:28
  TRACK 23 AUDIO
    TITLE "11:cjc040_3488"
    INDEX 01 00:24:06
  TRACK 24 AUDIO
    TITLE "0:"
    INDEX 01 00:26:15
  TRACK 25 AUDIO
    TITLE "10:cjc040_3489"
    INDEX 01 00:26:71
  TRACK 26 AUDIO
    TITLE "0:"
    INDEX 01 00:28:08
  TRACK 27 AUDIO
    TITLE "11:cjc040_3490"
    INDEX 01 00:28:60
  TRACK 28 AUDIO
    TITLE "0:"
    INDEX 01 00:31:65
  TRACK 29 AUDIO
    TITLE "10:cjc040_3491"
    INDEX 01 00:32:43
  TRACK 30 AUDIO
    TITLE "0:"
    INDEX 01 00:33:58
  TRACK 31 AUDIO
    TITLE "11:cjc040_3492"
    INDEX 01 00:34:42
  TRACK 32 AUDIO
    TITLE "0:"
    INDEX 01 00:35:70
  TRACK 33 AUDIO
    TITLE "10:cjc040_3493"
    INDEX 01 00:36:42
  TRACK 34 AUDIO
    TITLE "0:"
    INDEX 01 00:38:04
  TRACK 35 AUDIO
    TITLE "11:cjc040_3494"
    INDEX 01 00:38:51
  TRACK 36 AUDIO
    TITLE "0:"
    INDEX 01 00:41:40
  TRACK 37 AUDIO
    TITLE "10:cjc040_3495"
    INDEX 01 00:42:16
  TRACK 38 AUDIO
    TITLE "0:"
    INDEX 01 00:43:25
  TRACK 39 AUDIO
    TITLE "11:cjc040_3496"
    INDEX 01 00:44:05
  TRACK 40 AUDIO
    TITLE "0:"
    INDEX 01 00:45:10
  TRACK 41 AUDIO
    TITLE "10:cjc040_3497"
    INDEX 01 00:45:67
  TRACK 42 AUDIO
    TITLE "0:"
    INDEX 01 00:47:11
  TRACK 43 AUDIO
    TITLE "11:cjc040_3498"
    INDEX 01 00:47:62
  TRACK 44 AUDIO
    TITLE "0:"
    INDEX 01 00:49:04
  TRACK 45 AUDIO
    TITLE "10:cjc040_3499"
    INDEX 01 00:49:63
  TRACK 46 AUDIO
    TITLE "0:"
    INDEX 01 00:50:64
  TRACK 47 AUDIO
    TITLE "11:cjc040_3500"
    INDEX 01 00:51:44
  TRACK 48 AUDIO
    TITLE "0:"
    INDEX 01 00:53:47
  TRACK 49 AUDIO
    TITLE "10:cjc040_3501"
    INDEX 01 00:54:21
  TRACK 50 AUDIO
    TITLE "0:"
    INDEX 01 00:55:34
  TRACK 51 AUDIO
    TITLE "11:cjc040_3502"
    INDEX 01 00:56:12
  TRACK 52 AUDIO
    TITLE "0:"
    INDEX 01 00:57:35
  TRACK 53 AUDIO
    TITLE "10:cjc040_3503"
    INDEX 01 00:58:17
  TRACK 54 AUDIO
    TITLE "0:"
    INDEX 01 00:59:28
  TRACK 55 AUDIO
    TITLE "11:cjc040_3504"
    INDEX 01 00:59:73
  TRACK 56 AUDIO
    TITLE "0:"
    INDEX 01 01:01:01
  TRACK 57 AUDIO
    TITLE "10:cjc040_3505"
    INDEX 01 01:01:52
  TRACK 58 AUDIO
    TITLE "0:"
    INDEX 01 01:02:67
  TRACK 59 AUDIO
    TITLE "11:cjc040_3506"
    INDEX 01 01:03:47
  TRACK 60 AUDIO
    TITLE "0:"
    INDEX 01 01:05:68
  TRACK 61 AUDIO
    TITLE "10:cjc040_3507"
    INDEX 01 01:06:38
  TRACK 62 AUDIO
    TITLE "0:"
    INDEX 01 01:07:47
  TRACK 63 AUDIO
    TITLE "11:cjc040_3508"
    INDEX 01 01:08:21
  TRACK 64 AUDIO
    TITLE "0:"
    INDEX 01 01:09:26
  TRACK 65 AUDIO
    TITLE "10:cjc040_3509"
    INDEX 01 01:10:00
  TRACK 66 AUDIO
    TITLE "0:"
    INDEX 01 01:11:07
  TRACK 67 AUDIO
    TITLE "11:cjc040_3510"
    INDEX 01 01:11:60
  TRACK 68 AUDIO
    TITLE "0:"
    INDEX 01 01:14:53
  TRACK 69 AUDIO
    TITLE "10:cjc040_3511"
    INDEX 01 01:15:29
  TRACK 70 AUDIO
    TITLE "0:"
    INDEX 01 01:16:61
  TRACK 71 AUDIO
    TITLE "11:cjc040_3512"
    INDEX 01 01:17:45
  TRACK 72 AUDIO
    TITLE "0:"
    INDEX 01 01:20:71
